# xmcd
#
# Track frame offsets:
#        150
#        22190
#        44697
#        66487
#
# Disc length: 1172 seconds
#
# Revision: 0
# Processed by: cddbd v1.5PL3 Copyright (c) Steve Scherf et al.
# Submitted via: ExactAudioCopy v0.95a4
#
DISCID=3b049204
DTITLE=OFF COURSE - No.3 1985
DYEAR=1985
DGENRE=JPop
TTITLE0=EYES IN THE BACK OF MY HEART
TTITLE1=LOVE'S DETERMINATION
TTITLE2=FOOL (WHAT DOES A FOOL DO NOW)
TTITLE3=ENDLESS NIGHTS
EXTD=
EXTT0=
EXTT1=
EXTT2=
EXTT3=
PLAYORDER=
